# xmcd
#
# Track frame offsets: 
#        150
#        14030
#        29517
#        46335
#        70129
#        92857
#        108205
#        133424
#        178457
#        195584
#        213179
#        232709
#        245547
#        265731
#        280952
#        294902
#        308620
#        328571
#
# Disc length: 4776 seconds
#
# Revision: 0
# Processed by: cddbd v1.5.2PL0 Copyright (c) Steve Scherf et al.
# Submitted via: ExactAudioCopy v0.95b3
#
DISCID=0712a612
DTITLE=The Rolling Stones  - Unsurpassed Masters Vol. 3 1968-1969  FLA
DTITLE=C
DYEAR=1900
DGENRE=
TTITLE0=Did Everybody Pay Their Dues
TTITLE1=Dear Doctor
TTITLE2=Downtown Suzie
TTITLE3=Blood Red Wine
TTITLE4=Highway Child
TTITLE5=Hamburger To Go
TTITLE6=Sister Morphine
TTITLE7=Still A Fool
TTITLE8=Family
TTITLE9=Memo From Turner
TTITLE10=Gimmie Shelter
TTITLE11=You Got The Silver
TTITLE12=I'm A Country Boy
TTITLE13=Jiving Sister Fanny
TTITLE14=Honky Tonk Women
TTITLE15=Country Honk
TTITLE16=All Down The Line
TTITLE17=Loving Cup
EXTD=
EXTT0=
EXTT1=
EXTT2=
EXTT3=
EXTT4=
EXTT5=
EXTT6=
EXTT7=
EXTT8=
EXTT9=
EXTT10=
EXTT11=
EXTT12=
EXTT13=
EXTT14=
EXTT15=
EXTT16=
EXTT17=
PLAYORDER=
